<svg id="Layer_1" data-name="Layer 1" xmlns="http://www.w3.org/2000/svg" viewBox="0 0 257 40.49719"><title>echoscribe_logo</title><circle cx="189.92926" cy="34.64705" r="2.4924" style="fill:#f7412d"/><path d="M228.10726,1.64663c-9.41195,1.627-27.64176,10.00567-39.17539,28.58375l0.54437-.37038c1.00522-.6492,3.201-1.90291,4.85239-1.669a19.87645,19.87645,0,0,1,3.03554-4.94149,20.02614,20.02614,0,0,0,5.33275.795c7.02063,0,10.9386-4.8017,15.64554-10.57151A79.301,79.301,0,0,1,227.596,3.46284l2.34829-2.05969A9.652,9.652,0,0,0,228.10726,1.64663ZM208.37721,20.25975a10.82574,10.82574,0,0,1-4.67806,1.48612,24.273,24.273,0,0,1-4.59841-.445c0.89323-.97828,1.79165-1.92657,2.71431-2.84335l10.05436-.98119A17.75891,17.75891,0,0,1,208.37721,20.25975Zm3.73137-3.02366-8.15825-.79615q0.73927-.66143,1.51151-1.29736l9.39148-.97926c-0.92915,1.11141-1.83329,2.14667-2.74475,3.07281v0Zm4.48548-5.18946q-0.77453.94936-1.5156,1.84665l-7.06231-.73639a71.67259,71.67259,0,0,1,8.54533-5.48339,56.59584,56.59584,0,0,1,6.50218-3.02741c-2.50929,2.54744-4.58154,5.08616-6.4696,7.40059v0Z" style="fill:#fff"/><path d="M17.02148,27.88639H8.5957v7.10938h8.0332l0.22168-2.97363h3.79395v6.80176H0.957V35.83317l2.64844-.5127V17.46159L0.957,16.94889V13.94108H20.61035v6.81885H16.78223L16.56055,17.7863H8.5957v6.25488h8.42578v3.84521Z" style="fill:#fff"/><path d="M31.78711,35.35465a2.94058,2.94058,0,0,0,2.13672-.77783,2.75625,2.75625,0,0,0,.80273-2.07617h4.51172L39.29,32.60319A5.77006,5.77006,0,0,1,37.1875,37.2946a7.9313,7.9313,0,0,1-5.40039,1.88818,7.9319,7.9319,0,0,1-6.374-2.61475,9.9597,9.9597,0,0,1-2.23926-6.71631V29.339a9.84077,9.84077,0,0,1,2.29883-6.71631,8.23614,8.23614,0,0,1,6.55469-2.63184,11.37693,11.37693,0,0,1,4.01563.6665A7.95165,7.95165,0,0,1,39,22.53727l0.06836,4.939H35.01758l-0.82031-2.88818a3.17892,3.17892,0,0,0-.92285-0.53857,3.41726,3.41726,0,0,0-1.24707-.21338,3.15119,3.15119,0,0,0-2.99121,1.53809,7.984,7.984,0,0,0-.87207,3.96484v0.5127a8.50947,8.50947,0,0,0,.80371,3.99072A2.91708,2.91708,0,0,0,31.78711,35.35465Z" style="fill:#fff"/><path d="M41.27148,35.83317l2.41016-.5127V15.68424l-2.666-.5127V12.16374H48.6543V22.69108A6.30035,6.30035,0,0,1,50.791,20.69987a6.18333,6.18333,0,0,1,7.35742,1.21387q1.64795,1.92188,1.64844,5.93848v7.46826l2.39258,0.5127v2.99072H52.6543V35.83317l2.15234-.5127V27.818a4.75588,4.75588,0,0,0-.75977-3.05078,2.8064,2.8064,0,0,0-2.26465-.897,4.14035,4.14035,0,0,0-1.82031.376,3.64127,3.64127,0,0,0-1.30762,1.05957V35.32048l2.1543,0.5127v2.99072H41.27148V35.83317Z" style="fill:#fff"/><path d="M63.625,29.40739a9.89908,9.89908,0,0,1,2.31641-6.77588,8.06519,8.06519,0,0,1,6.40039-2.64062,8.10151,8.10151,0,0,1,6.417,2.63184,9.89725,9.89725,0,0,1,2.31543,6.78467v0.35889a9.88748,9.88748,0,0,1-2.31543,6.793A8.07246,8.07246,0,0,1,72.375,39.18278a8.131,8.131,0,0,1-6.43359-2.62354,9.88331,9.88331,0,0,1-2.31641-6.793V29.40739Zm4.99023,0.35889a8.04774,8.04774,0,0,0,.88867,4.05859,3.41466,3.41466,0,0,0,5.7002-.0083,7.9958,7.9958,0,0,0,.89746-4.05029V29.40739a7.91362,7.91362,0,0,0-.90625-4.01611A3.06464,3.06464,0,0,0,72.3418,23.8361a3.02842,3.02842,0,0,0-2.83789,1.55518,8.04151,8.04151,0,0,0-.88867,4.01611v0.35889Z" style="fill:#fff"/><path d="M102.02637,21.88786H98.2832l-0.64844-3.418a6.63513,6.63513,0,0,0-1.89746-.71777,11.03721,11.03721,0,0,0-2.64941-.30762,5.09785,5.09785,0,0,0-3.16992.86279,2.69286,2.69286,0,0,0-1.11914,2.23047,2.43655,2.43655,0,0,0,1.1709,2.07617,16.16435,16.16435,0,0,0,4.042,1.71777,15.78327,15.78327,0,0,1,6.24609,3.0249,6.27531,6.27531,0,0,1,2.127,4.939,5.90684,5.90684,0,0,1-2.5293,5.0415,11.04564,11.04564,0,0,1-6.66406,1.8457,14.454,14.454,0,0,1-5.34082-.93994A10.99141,10.99141,0,0,1,83.877,35.64518V30.44987h3.8623l0.53027,3.5376a6.03791,6.03791,0,0,0,2.042,1.01709,9.664,9.664,0,0,0,2.87988.40137,4.97135,4.97135,0,0,0,3.11816-.8374,2.6998,2.6998,0,0,0,1.06836-2.23877,2.88886,2.88886,0,0,0-1.0166-2.30713A10.29918,10.29918,0,0,0,92.79785,28.382a20.27372,20.27372,0,0,1-6.69922-3.042,5.76228,5.76228,0,0,1-2.27246-4.81934,5.92438,5.92438,0,0,1,2.5625-4.94775A10.68727,10.68727,0,0,1,92.832,13.59928a14.988,14.988,0,0,1,5.22949.87158,12.07884,12.07884,0,0,1,3.96484,2.32422v5.09277Z" style="fill:#f7412d"/><path d="M113.15039,35.35465a2.94058,2.94058,0,0,0,2.13672-.77783,2.75625,2.75625,0,0,0,.80273-2.07617h4.51172l0.05176,0.10254a5.77006,5.77006,0,0,1-2.10254,4.69141,8.88833,8.88833,0,0,1-11.77441-.72656,9.9597,9.9597,0,0,1-2.23926-6.71631V29.339a9.84077,9.84077,0,0,1,2.29883-6.71631,8.23614,8.23614,0,0,1,6.55469-2.63184,11.37693,11.37693,0,0,1,4.01563.6665,7.95165,7.95165,0,0,1,2.957,1.87988l0.06836,4.939h-4.05078l-0.82031-2.88818a3.17892,3.17892,0,0,0-.92285-0.53857,3.41726,3.41726,0,0,0-1.24707-.21338,3.15119,3.15119,0,0,0-2.99121,1.53809,7.984,7.984,0,0,0-.87207,3.96484v0.5127a8.50947,8.50947,0,0,0,.80371,3.99072A2.91708,2.91708,0,0,0,113.15039,35.35465Z" style="fill:#f7412d"/><path d="M123.28516,35.83317l2.39258-.5127V23.85319l-2.64941-.5127V20.33268h7.29785l0.22168,2.7002a5.81814,5.81814,0,0,1,1.6748-2.23877,3.74471,3.74471,0,0,1,2.375-.80322,6.14607,6.14607,0,0,1,.8291.05957,5.223,5.223,0,0,1,.72656.14551l-0.53027,4.5459-2.05078-.05127a3.4944,3.4944,0,0,0-1.81055.42725,2.76027,2.76027,0,0,0-1.09375,1.21338v8.98926l2.39258,0.5127v2.99072h-9.77539V35.83317Z" style="fill:#f7412d"/><path d="M137.4873,35.83317l2.40918-.5127V23.85319l-2.666-.5127V20.33268h7.65625V35.32048l2.39258,0.5127v2.99072h-9.792V35.83317Zm7.39941-19.92676h-4.99023V12.16374h4.99023v3.74268Z" style="fill:#f7412d"/><path d="M166.79688,30.091a10.81563,10.81563,0,0,1-1.8457,6.61377,6.24129,6.24129,0,0,1-5.332,2.478,5.64113,5.64113,0,0,1-2.82031-.67529,5.73905,5.73905,0,0,1-2.0166-1.95654l-0.3584,2.27295h-4.30664V15.68424l-2.64941-.5127V12.16374h7.62207V22.298a5.64432,5.64432,0,0,1,1.92285-1.709,5.37586,5.37586,0,0,1,2.57129-.59814,6.12712,6.12712,0,0,1,5.36719,2.65723,12.20164,12.20164,0,0,1,1.8457,7.084V30.091Zm-4.97363-.35889a9.6238,9.6238,0,0,0-.79492-4.28125,2.78842,2.78842,0,0,0-2.708-1.58057,3.72875,3.72875,0,0,0-1.96582.48682,3.37748,3.37748,0,0,0-1.26465,1.39307v7.81006a3.13778,3.13778,0,0,0,1.27344,1.29883,4.09583,4.09583,0,0,0,1.99023.44434,2.84012,2.84012,0,0,0,2.70117-1.3584,7.92708,7.92708,0,0,0,.76855-3.854V29.7321Z" style="fill:#f7412d"/><path d="M177.95508,39.18278a8.32868,8.32868,0,0,1-6.39258-2.56348,9.16754,9.16754,0,0,1-2.39258-6.51123V29.42448a10.11481,10.11481,0,0,1,2.26465-6.78467,8.44211,8.44211,0,0,1,11.88574-.39307,8.67935,8.67935,0,0,1,2.06836,6.10107V31.0651h-11.04l-0.03418.10254a4.82292,4.82292,0,0,0,1.22168,3.00781,3.80961,3.80961,0,0,0,2.94824,1.1792,9.59079,9.59079,0,0,0,2.752-.3335,12.63959,12.63959,0,0,0,2.39258-1.05078l1.34961,3.07617a9.82742,9.82742,0,0,1-2.96484,1.521A12.62408,12.62408,0,0,1,177.95508,39.18278ZM177.50977,23.8361a2.601,2.601,0,0,0-2.1875,1.05957,5.51811,5.51811,0,0,0-.99023,2.78564l0.05078,0.08545H180.501V27.32243a4.00417,4.00417,0,0,0-.74316-2.5376A2.6799,2.6799,0,0,0,177.50977,23.8361Z" style="fill:#f7412d"/></svg>