<svg id="Layer_1" data-name="Layer 1" xmlns="http://www.w3.org/2000/svg" viewBox="0 0 35.6875 38"><title>quill_red</title><path d="M32.2135,8.8192a48.15941,48.15941,0,0,0-12.62994,2.29585,23.21964,23.21964,0,0,0-8.80469,4.98953,12.70576,12.70576,0,0,0-4.043,9.26481A47.5716,47.5716,0,0,0,.9527,32.53383s2.62887-1.94089,4.45256-1.68262a16.39848,16.39848,0,0,1,2.50443-4.07692,16.52245,16.52245,0,0,0,4.39974.65592c5.79232,0,9.02481-3.96165,12.90824-8.72194a65.43224,65.43224,0,0,1,7.63459-8.25882L34.7897,8.75009ZM12.05982,17.4556a21.34946,21.34946,0,0,1,8.084-4.56481,42.14074,42.14074,0,0,1,6.35705-1.57267c-0.97137.43894-2.05448,0.96894-3.232,1.60613a61.43288,61.43288,0,0,0-8.79737,5.83534,72.2449,72.2449,0,0,0-5.75365,5.07912,10.64445,10.64445,0,0,1,.797-2.80327A11.4598,11.4598,0,0,1,12.05982,17.4556Zm1.0765,8.07815a12.66136,12.66136,0,0,1-3.83056-.32689c0.86814-.95191,1.74169-1.86964,2.64675-2.75092h7.46382a13.70221,13.70221,0,0,1-2.42041,1.8517A8.93148,8.93148,0,0,1,13.13632,25.53376Zm7.3841-4.18473H13.12934c0.62045-.56283,1.25977-1.10935,1.92555-1.63885h6.92C21.48567,20.28667,21.00317,20.83533,20.52042,21.349Zm3.25475-3.81754q-0.44546.546-.87689,1.07178H16.49052a59.30739,59.30739,0,0,1,7.25777-4.67983,46.6948,46.6948,0,0,1,5.36453-2.49772C27.04257,13.52746,25.33289,15.622,23.77517,17.53149Z" style="fill:#f44336"/></svg>