<svg id="Layer_1" data-name="Layer 1" xmlns="http://www.w3.org/2000/svg" viewBox="0 0 35.6875 38"><title>quill_white</title><polygon points="7.938 24.012 10.438 24.875 14.67 24.443 17 23.839 19.688 22.106 24.438 16.563 31.188 8.75 23.375 11.426 16.76 15.438 12.688 18.125 7.938 24.012" style="fill:#dddddf"/><path d="M33.35184,7.26357C25.57926,8.60715,10.52471,15.52646,1,30.86862l0.44955-.30587c0.83013-.53612,2.64348-1.57146,4.0072-1.37833a16.41434,16.41434,0,0,1,2.50681-4.08078,16.538,16.538,0,0,0,4.40389.65654c5.79778,0,9.03332-3.96534,12.92041-8.73017a65.48847,65.48847,0,0,1,7.64178-8.26658L34.86891,7.0625A7.9708,7.9708,0,0,0,33.35184,7.26357ZM17.05836,22.63466a8.94011,8.94011,0,0,1-3.86324,1.22727,20.04507,20.04507,0,0,1-3.79746-.36748c0.73765-.80788,1.47958-1.591,2.24153-2.3481l8.3031-.81029A14.66568,14.66568,0,0,1,17.05836,22.63466Zm3.08144-2.497-6.73725-.65748q0.6105-.54622,1.24824-1.07139l7.75568-.80869C21.63916,18.51793,20.8925,19.37287,20.1398,20.13769Zm3.7042-4.28556q-0.63962.784-1.25161,1.525l-5.8322-.60813a59.18869,59.18869,0,0,1,7.05691-4.5283,46.73806,46.73806,0,0,1,5.36963-2.5001C27.11451,11.8443,25.4032,13.94083,23.844,15.85213Z" style="fill:#fff"/></svg>