<?xml version="1.0" encoding="utf-8"?>
<!-- Generator: Adobe Illustrator 16.0.0, SVG Export Plug-In . SVG Version: 6.00 Build 0)  -->
<!DOCTYPE svg PUBLIC "-//W3C//DTD SVG 1.1//EN" "http://www.w3.org/Graphics/SVG/1.1/DTD/svg11.dtd">
<svg version="1.1" id="Layer_1" xmlns="http://www.w3.org/2000/svg" xmlns:xlink="http://www.w3.org/1999/xlink" x="0px" y="0px"
	 width="1154.06445px" height="205.48926px" viewBox="0 296.0957 1154.06445 205.48926"
	 enable-background="new 0 296.0957 1154.06445 205.48926" xml:space="preserve">
<circle fill="#F7412D" cx="945.95117" cy="471.7124" r="12.41357"/>
<path fill="#FFFFFF" d="M1136.09863,307.35254c-46.87695,8.10254-137.6709,49.83301-195.11523,142.3623l2.71191-1.84473
	c5.00586-3.2334,15.94238-9.47754,24.16699-8.3125c3.80957-8.89941,8.90332-17.19141,15.11816-24.61133
	c8.63477,2.51074,17.56934,3.84277,26.56055,3.95898c34.9668,0,54.48047-23.91504,77.92383-52.65137
	c13.90234-17.91113,29.32227-34.59082,46.08691-49.85645l11.69629-10.25781
	C1142.16602,306.24902,1139.10254,306.65527,1136.09863,307.35254z M1037.83203,400.05566
	c-7.09766,4.21875-15.06836,6.75098-23.29883,7.40137c-7.6875-0.00879-15.35645-0.75098-22.90332-2.21582
	c4.44922-4.87305,8.92383-9.5957,13.51855-14.16211l50.07617-4.88672
	C1050.03418,391.52734,1044.18945,396.18457,1037.83203,400.05566z M1056.41602,384.99609l-40.63281-3.96484
	c2.45508-2.19629,4.96484-4.35059,7.52832-6.46191l46.77539-4.87695
	C1065.45898,375.22754,1060.95605,380.38379,1056.41602,384.99609L1056.41602,384.99609L1056.41602,384.99609z
	 M1078.75586,359.14941c-2.57129,3.15234-5.08789,6.21875-7.54785,9.19727l-35.1748-3.66699
	c13.52344-10.09863,27.74609-19.22461,42.56055-27.31055c10.46582-5.70605,21.28223-10.74219,32.38477-15.07812
	c-12.49805,12.6875-22.81836,25.33203-32.22266,36.85938l0,0V359.14941z"/>
<path fill="#FFFFFF" d="M84.77637,438.04004H42.81152v35.40918H82.8208l1.104-14.81055h18.896v33.87695H4.7666v-14.89551
	l13.19043-2.55371v-88.94727L4.7666,383.56543v-14.98047h97.88428v33.96191H83.58447l-1.104-14.81055H42.81152v31.15234h41.96484
	V438.04004z"/>
<path fill="#FFFFFF" d="M158.31689,475.23633c3.92334,0.1875,7.75781-1.20801,10.64209-3.87402
	c2.72754-2.73145,4.17871-6.48438,3.99805-10.34082h22.4707l0.25781,0.51074c0.36377,9-3.5127,17.64844-10.47168,23.36621
	c-7.4834,6.37207-17.07324,9.72461-26.89697,9.4043c-12.01318,0.7207-23.69971-4.07324-31.74561-13.02344
	c-7.68896-9.4082-11.65771-21.31055-11.15283-33.4502v-2.55371c-0.47852-12.18652,3.604-24.11328,11.44922-33.45117
	c8.36133-9.05078,20.34766-13.86328,32.646-13.10742c6.81201-0.10547,13.5874,1.01953,20,3.31934
	c5.54443,1.98633,10.57568,5.18555,14.72754,9.3623l0.34033,24.59961h-20.1748l-4.08545-14.38477
	c-1.37012-1.14746-2.92432-2.05469-4.59668-2.68262c-1.98584-0.7373-4.09277-1.09863-6.21094-1.0625
	c-6.02734-0.53223-11.82373,2.44824-14.89795,7.66016c-3.125,6.09863-4.62109,12.90039-4.34326,19.74707v2.55371
	c-0.29346,6.85156,1.08008,13.67188,4.00293,19.87598C147.03906,472.78711,152.55469,475.74512,158.31689,475.23633z"/>
<path fill="#FFFFFF" d="M205.55469,477.62012l12.00391-2.55371v-97.7998l-13.27832-2.55273V359.7334h38.04443v52.43164
	c2.72168-4.09375,6.36719-7.49121,10.64209-9.91699c12.19238-6.40527,27.15527-3.9375,36.64404,6.04492
	c5.47168,6.38184,8.2085,16.24023,8.20996,29.57715v37.19629l11.9165,2.55371v14.89453h-47.49023v-14.89453l10.71973-2.55371
	V437.7002c0.49756-5.34766-0.83643-10.70605-3.78418-15.19531c-2.88379-3.12793-7.03516-4.77246-11.27881-4.4668
	c-3.125-0.07129-6.2251,0.56934-9.06641,1.87207c-2.55322,1.22656-4.78369,3.03418-6.5127,5.27734v49.87891l10.72998,2.55371
	v14.89453h-47.5V477.62012z"/>
<path fill="#FFFFFF" d="M316.88721,445.61621c-0.50049-12.29492,3.61475-24.33301,11.53662-33.74805
	c8.1084-8.9541,19.81494-13.78418,31.87793-13.15137c12.07959-0.64258,23.81006,4.16895,31.95996,13.10742
	c7.93164,9.42676,12.0459,21.48242,11.53223,33.79199v1.78711c0.52832,12.32422-3.58691,24.39746-11.53223,33.83301
	c-8.1084,8.89453-19.7749,13.68945-31.79492,13.06641c-12.09766,0.65723-23.854-4.1377-32.04297-13.06641
	c-7.94922-9.43359-12.06641-21.50879-11.53662-33.83301V445.61621L316.88721,445.61621z M341.74121,447.40332
	c-0.31934,7.00879,1.20703,13.97949,4.42578,20.21387c5.18457,7.83203,15.73682,9.97852,23.56885,4.79395
	c1.91748-1.26855,3.55811-2.91406,4.82178-4.83496c3.23828-6.21387,4.78027-13.17285,4.46973-20.17285v-1.78711
	c0.28662-6.94922-1.27051-13.85059-4.51367-20.00293c-2.86572-5.08789-8.3833-8.09473-14.21191-7.74512
	c-5.81152-0.36328-11.31299,2.65137-14.13428,7.74512c-3.18457,6.1709-4.70996,13.06445-4.42627,20.00293V447.40332z"/>
<path fill="#F7412D" d="M508.14648,408.16406h-18.64258l-3.22949-17.02344c-2.94824-1.66895-6.13574-2.87402-9.4502-3.57422
	c-4.32031-1.04297-8.75195-1.55664-13.19531-1.53223c-5.59277-0.34961-11.14453,1.16113-15.78809,4.29688
	c-3.56543,2.56641-5.64746,6.7168-5.57422,11.10938c0.00977,4.22656,2.21973,8.14453,5.83203,10.33984
	c6.29004,3.75488,13.0625,6.63281,20.13086,8.55566c11.35938,2.65137,21.98535,7.79785,31.10938,15.06543
	c7.04297,6.19434,10.93262,15.22559,10.59375,24.59961c0.32617,9.96289-4.41602,19.41406-12.59766,25.10938
	c-9.79492,6.53711-21.42871,9.75879-33.19043,9.19238c-9.08301,0.13184-18.1084-1.45703-26.60059-4.68164
	c-7.46094-2.81934-14.21484-7.23535-19.79102-12.9375v-25.87598h19.23633l2.6416,17.61914
	c3.03711,2.31934,6.48828,4.03906,10.16992,5.06641c4.65332,1.38574,9.48926,2.05957,14.34375,1.99902
	c5.49609,0.37598,10.96094-1.0918,15.5293-4.1709c3.47754-2.63379,5.46094-6.79102,5.32129-11.15039
	c0.16113-4.40332-1.70508-8.6377-5.06348-11.49121c-5.33789-3.83496-11.36328-6.60938-17.74805-8.1709
	c-11.95312-2.97266-23.26074-8.10742-33.36523-15.15039c-7.46777-5.67188-11.69336-14.63379-11.31836-24.00293
	c-0.11523-9.82715,4.66992-19.06641,12.7627-24.64258c9.35742-6.65234,20.61426-10.09961,32.09082-9.83008
	c8.87109-0.1123,17.69141,1.35742,26.0459,4.34082c7.2627,2.55957,13.9668,6.48926,19.74707,11.57617V408.16406L508.14648,408.16406
	z"/>
<path fill="#F7412D" d="M563.55078,475.23633c3.92285,0.1875,7.75781-1.20801,10.6416-3.87402
	c2.72754-2.73145,4.17871-6.48438,3.99805-10.34082h22.4707l0.25781,0.51074c0.36426,9-3.5127,17.64844-10.47168,23.36621
	c-17.64648,13.80859-42.82812,12.25488-58.64258-3.61914c-7.68945-9.40723-11.65723-21.31055-11.15332-33.4502v-2.55371
	c-0.47754-12.18652,3.60449-24.11328,11.4502-33.45117c8.36035-9.05078,20.34766-13.86328,32.64551-13.10742
	c6.81152-0.10547,13.58691,1.01953,20,3.31934c5.54395,1.98633,10.5752,5.18555,14.72754,9.3623l0.34082,24.59961h-20.17578
	l-4.08496-14.38477c-1.37012-1.14746-2.92383-2.05469-4.59668-2.68262c-1.98633-0.73828-4.09277-1.09863-6.21094-1.0625
	c-6.02734-0.53223-11.82422,2.44824-14.89844,7.66016c-3.125,6.09766-4.62109,12.90039-4.34277,19.74707v2.55371
	c-0.29395,6.85156,1.08008,13.67188,4.00293,19.87598C552.27246,472.78711,557.78809,475.74512,563.55078,475.23633z"/>
<path fill="#F7412D" d="M614.02734,477.62012l11.91602-2.55371v-57.11328l-13.19531-2.55371v-14.98047h36.34766l1.10352,13.44824
	c1.83301-4.33984,4.69629-8.16699,8.3418-11.15039c3.36621-2.65332,7.54297-4.06543,11.82812-4
	c1.38184,0.00488,2.76172,0.10449,4.12988,0.29688c1.22168,0.15527,2.43066,0.39746,3.61816,0.72461l-2.64062,22.64062
	l-10.21387-0.25488c-3.14258-0.11914-6.25879,0.61621-9.01758,2.12793c-2.38379,1.41797-4.2832,3.52539-5.44727,6.04297v44.77148
	l11.91602,2.55371v14.89551h-48.68652V477.62012z"/>
<path fill="#F7412D" d="M684.76172,477.62012l11.99902-2.55371v-57.11328l-13.27832-2.55371v-14.98047h38.13281v74.64746
	l11.91602,2.55371v14.89453h-48.76953V477.62012z M721.61523,378.37402h-24.85449V359.7334h24.85449V378.37402L721.61523,378.37402z
	"/>
<path fill="#F7412D" d="M830.73926,449.02051c0.59473,11.6875-2.63184,23.25-9.19238,32.94043
	c-6.23828,8.28711-16.19922,12.91602-26.55664,12.3418c-4.89551,0.12207-9.7373-1.03711-14.04688-3.36328
	c-4.10352-2.36621-7.55469-5.71484-10.04297-9.74512l-1.78516,11.32031h-21.4502V377.2666l-13.19531-2.55273V359.7334h37.96191
	v50.47363c2.49512-3.53613,5.77246-6.44922,9.57715-8.51172c3.95508-2.04199,8.35645-3.06543,12.80664-2.97852
	c10.60645-0.54102,20.73047,4.47168,26.73145,13.23438c6.60352,10.54199,9.81152,22.85742,9.19238,35.28223V449.02051
	L830.73926,449.02051z M805.96777,447.2334c0.32715-7.31738-1.02734-14.61133-3.95898-21.32324
	c-2.45508-5.14258-7.80176-8.26367-13.4873-7.87207c-3.4248-0.11035-6.81348,0.72852-9.79102,2.4248
	c-2.71387,1.66895-4.89844,4.0752-6.29883,6.9375v38.89844c1.42969,2.73535,3.63672,4.98633,6.34277,6.46973
	c3.06445,1.56152,6.47461,2.32227,9.91211,2.21289c5.41211,0.51758,10.6416-2.1123,13.4541-6.76562
	c2.86621-5.97559,4.18262-12.57715,3.82715-19.19531V447.2334L805.96777,447.2334z"/>
<path fill="#F7412D" d="M886.31348,494.30273c-11.95801,0.53711-23.56543-4.11719-31.83887-12.76758
	c-8.06641-8.83203-12.3457-20.47656-11.91602-32.42969v-3.4043c-0.48145-12.26172,3.5293-24.27734,11.2793-33.79199
	c15.8457-16.79785,42.27539-17.67188,59.19727-1.95703c7.20508,8.43164,10.89258,19.31055,10.30176,30.38672v13.5332h-54.98535
	l-0.16992,0.51074c0.23535,5.54688,2.38574,10.83984,6.08398,14.98047c3.80664,4.00195,9.16797,6.14551,14.68359,5.87305
	c4.625,0.11328,9.24219-0.44629,13.70703-1.66113c4.14258-1.32812,8.13574-3.08203,11.91602-5.2334l6.72168,15.32129
	c-4.45508,3.34668-9.44824,5.90918-14.7666,7.5752C900.00195,493.35547,893.17383,494.39062,886.31348,494.30273z
	 M884.0957,417.86816c-4.28125-0.15039-8.35938,1.82422-10.89551,5.27637c-2.875,4.09082-4.58008,8.8877-4.93164,13.87402
	l0.25293,0.42578h30.47168v-2.21289c0.2334-4.51074-1.07129-8.96582-3.70117-12.63867
	C892.53516,419.31152,888.36914,417.55371,884.0957,417.86816z"/>
</svg>
